<svg xmlns="http://www.w3.org/2000/svg" width="56px" height="56px" fill="#22B95B" viewBox="0 0 24 24"><path d="M3.316,19.938c-0.161,0-0.323-0.031-0.478-0.095c-0.468-0.193-0.772-0.645-0.773-1.152L2.06,16.974
                L2.068,6.56c0.001-1.377,1.123-2.498,2.5-2.498H19.44c1.378,0,2.5,1.122,2.5,2.5v8.41c0,1.378-1.122,2.5-2.5,2.5H6.918
                c-0.401,0-0.777,0.156-1.061,0.439l-1.659,1.659C3.959,19.811,3.641,19.938,3.316,19.938z M4.568,5.062
                c-0.826,0-1.5,0.672-1.5,1.499L3.06,16.973l0.005,1.714c0,0.151,0.108,0.211,0.155,0.23c0.047,0.02,0.166,0.052,0.272-0.054
                l1.659-1.659c0.472-0.472,1.1-0.732,1.768-0.732H19.44c0.827,0,1.5-0.673,1.5-1.5v-8.41c0-0.827-0.673-1.5-1.5-1.5H4.568z"/></svg>