<svg xmlns="http://www.w3.org/2000/svg" width="56px" height="56px" fill="#EC4899" viewBox="0 0 24 24"><g>
                <path d="M20.235,11.284c-0.8-0.8-2.15-0.85-3.01-0.15l-1.78-5.39c-0.3-0.93-1.13-1.6-2.1-1.7l-8.58-0.93
                    c-0.45-0.05-0.89,0.11-1.22,0.43c-0.32,0.32-0.48,0.77-0.43,1.22l0.93,8.58c0.1,0.97,0.77,1.8,1.7,2.1l5.39,1.77
                    c-0.33,0.4-0.51,0.91-0.51,1.43c0,0.6,0.23,1.16,0.66,1.59c0.42,0.42,0.99,0.66,1.59,0.66c0.6,0,1.16-0.24,1.59-0.66l5.77-5.77
                    c0.43-0.43,0.66-0.99,0.66-1.59S20.665,11.705,20.235,11.284z M6.055,14.494c-0.55-0.18-0.96-0.68-1.02-1.26l-0.9-8.39l4.01,4.01
                    c-0.14,0.41-0.05,0.89,0.28,1.22c0.45,0.45,1.19,0.45,1.65,0c0.45-0.46,0.45-1.2,0-1.65c-0.33-0.33-0.8-0.42-1.21-0.27l-4.02-4.02
                    l8.39,0.9c0.59,0.06,1.08,0.46,1.26,1.02l1.93,5.86l-4.51,4.51L6.055,14.494z M17.764,11.984c0.23-0.23,0.55-0.36,0.88-0.36
                    s0.65,0.13,0.88,0.36c0.24,0.24,0.37,0.55,0.37,0.89c0,0.33-0.13,0.64-0.37,0.88l-5.77,5.77c-0.47,0.48-1.29,0.47-1.77,0
                    c-0.23-0.23-0.36-0.55-0.36-0.88c0-0.33,0.13-0.65,0.36-0.88L17.764,11.984z"/>
            </g></svg>